# xmcd
#
# Track frame offsets:
#	150
#	9475
#	21437
#	33712
#	46512
#	62162
#	71695
#	83420
#	93880
#	101875
#	110982
#	122912
#	135575
#	147662
#	154662
#	165187
#	176487
#	187350
#
# Disc length: 2603 seconds
#
# Revision: 0
# Processed by: cddbd v1.5.2PL0 Copyright (c) Steve Scherf et al.
# Submitted via: audiograbber 1.83.01
#
DISCID=fa0a2912
DTITLE=Jim Reeves - country
DYEAR=1900
DGENRE=
TTITLE0=If you were only mine
TTITLE1=I love you more
TTITLE2=Ive lived  lot in my time
TTITLE3=Your old love letters
TTITLE4=Making believe
TTITLE5=According to my heart
TTITLE6=Just call me lonesome
TTITLE7=He'll have to go
TTITLE8=Bimbo
TTITLE9=Yonder comes a sucker
TTITLE10=Am I loosing you
TTITLE11=Four walls
TTITLE12=Mexican Joe
TTITLE13=Have I told you lately
TTITLE14=Anne Marie
TTITLE15=I missed you
TTITLE16=Peace in the valley
TTITLE17=Till the end of the world
EXTD=
EXTT0=
EXTT1=
EXTT2=
EXTT3=
EXTT4=
EXTT5=
EXTT6=
EXTT7=
EXTT8=
EXTT9=
EXTT10=
EXTT11=
EXTT12=
EXTT13=
EXTT14=
EXTT15=
EXTT16=
EXTT17=
PLAYORDER=
